<svg width="38" height="38" viewBox="0 0 38 38" fill="none" xmlns="http://www.w3.org/2000/svg">
<path d="M32.0006 32.0002C35.4484 28.5523 37.3854 23.876 37.3854 19C37.3854 14.124 35.4484 9.44769 32.0006 5.99982C28.5527 2.55196 23.8764 0.614974 19.0004 0.614974C14.1244 0.614976 9.44807 2.55196 6.00021 5.99982C2.55234 9.44769 0.615356 14.124 0.615354 19C0.615356 23.876 2.55234 28.5523 6.00021 32.0002C9.44807 35.448 14.1244 37.385 19.0004 37.385C23.8764 37.385 28.5527 35.448 32.0006 32.0002ZM26.9614 17.8511C27.1139 17.8485 27.2655 17.8762 27.4072 17.9328C27.5489 17.9893 27.6779 18.0735 27.7868 18.1805C27.8956 18.2874 27.982 18.415 28.041 18.5557C28.1 18.6964 28.1304 18.8474 28.1304 19C28.1304 19.1526 28.1 19.3036 28.041 19.4443C27.982 19.585 27.8956 19.7126 27.7868 19.8195C27.6779 19.9265 27.5489 20.0107 27.4072 20.0672C27.2655 20.1238 27.1139 20.1515 26.9614 20.1489L13.6492 20.1489L18.1472 24.647C18.3627 24.8624 18.4838 25.1547 18.4838 25.4595C18.4838 25.7642 18.3627 26.0565 18.1472 26.272C17.9318 26.4875 17.6395 26.6085 17.3347 26.6085C17.03 26.6085 16.7377 26.4875 16.5222 26.272L10.0628 19.8125C9.84727 19.597 9.72621 19.3048 9.72621 19C9.72621 18.6952 9.84727 18.403 10.0628 18.1875L16.5222 11.728C16.7377 11.5125 17.03 11.3915 17.3347 11.3915C17.6395 11.3915 17.9318 11.5125 18.1472 11.728C18.3627 11.9435 18.4838 12.2358 18.4838 12.5405C18.4838 12.8453 18.3627 13.1376 18.1472 13.353L13.6492 17.8511L26.9614 17.8511Z" fill="#0A71B7"/>
</svg>
