<svg width="38" height="38" viewBox="0 0 38 38" fill="none" xmlns="http://www.w3.org/2000/svg">
<path d="M6.00018 32.0002C2.55231 28.5523 0.615327 23.876 0.615327 19C0.615327 14.124 2.55231 9.44769 6.00018 5.99982C9.44804 2.55196 14.1243 0.614974 19.0004 0.614974C23.8764 0.614974 28.5527 2.55196 32.0005 5.99982C35.4484 9.44769 37.3854 14.124 37.3854 19C37.3854 23.876 35.4484 28.5523 32.0005 32.0002C28.5527 35.448 23.8764 37.385 19.0004 37.385C14.1243 37.385 9.44804 35.448 6.00018 32.0002ZM11.0394 17.8511C10.8868 17.8485 10.7353 17.8762 10.5935 17.9328C10.4518 17.9893 10.3228 18.0735 10.214 18.1805C10.1052 18.2874 10.0187 18.415 9.95972 18.5557C9.90072 18.6964 9.87034 18.8474 9.87034 19C9.87034 19.1526 9.90072 19.3036 9.95972 19.4443C10.0187 19.585 10.1052 19.7126 10.214 19.8195C10.3228 19.9265 10.4518 20.0107 10.5935 20.0672C10.7353 20.1238 10.8868 20.1515 11.0394 20.1489L24.3515 20.1489L19.8535 24.647C19.638 24.8624 19.5169 25.1547 19.5169 25.4595C19.5169 25.7642 19.638 26.0565 19.8535 26.272C20.069 26.4875 20.3612 26.6085 20.666 26.6085C20.9708 26.6085 21.263 26.4875 21.4785 26.272L27.938 19.8125C28.1535 19.597 28.2745 19.3048 28.2745 19C28.2745 18.6952 28.1535 18.403 27.938 18.1875L21.4785 11.728C21.263 11.5125 20.9708 11.3915 20.666 11.3915C20.3612 11.3915 20.069 11.5125 19.8535 11.728C19.638 11.9435 19.5169 12.2358 19.5169 12.5405C19.5169 12.8453 19.638 13.1376 19.8535 13.353L24.3515 17.8511L11.0394 17.8511Z" fill="#0A71B7"/>
</svg>
